<?xml version="1.0" encoding="UTF-8"?>
<svg xmlns="http://www.w3.org/2000/svg" xmlns:xlink="http://www.w3.org/1999/xlink" width="0" height="0">
<symbol id="arrow-down" width="20" height="20" viewBox="0 0 20 20" fill="none">
<path d="M5 8C6.5 9.66667 10 13 10 13L15 8" stroke="currentColor" stroke-width="2" stroke-linecap="round" stroke-linejoin="round"/>
</symbol>

<symbol id="arrow-left" width="28" height="30" viewBox="0 0 28 30" fill="none">
<path fill-rule="evenodd" clip-rule="evenodd" d="M16.5371 25.0827L7.29215 15.9458C6.90262 15.5612 6.90262 14.9398 7.29215 14.5542L16.5371 5.41733C17.0995 4.86089 18.0144 4.86089 18.5777 5.41733C19.14 5.97378 19.14 6.87687 18.5777 7.43332L10.6691 15.2505L18.5777 23.0657C19.14 23.6231 19.14 24.5262 18.5777 25.0827C18.0144 25.6391 17.0995 25.6391 16.5371 25.0827Z" fill="currentColor"/>
</symbol>

<symbol id="arrow-right" width="28" height="30" viewBox="0 0 28 30" fill="none">
<path fill-rule="evenodd" clip-rule="evenodd" d="M10.4629 25.0827L19.7078 15.9458C20.0974 15.5612 20.0974 14.9398 19.7078 14.5542L10.4629 5.41733C9.90053 4.86089 8.98563 4.86089 8.4223 5.41733C7.85997 5.97378 7.85997 6.87687 8.4223 7.43332L16.3309 15.2505L8.4223 23.0657C7.85997 23.6231 7.85997 24.5262 8.4223 25.0827C8.98563 25.6391 9.90053 25.6391 10.4629 25.0827Z" fill="currentColor"/>
</symbol>

<symbol id="circle-dark" width="24" height="24" viewBox="0 0 24 24" fill="none">
<path fill-rule="evenodd" clip-rule="evenodd" d="M0 12C0 18.6274 5.37258 24 12 24C18.6274 24 24 18.6274 24 12C24 5.37258 18.6274 0 12 0C5.37258 0 0 5.37258 0 12ZM22 12C22 17.5228 17.5228 22 12 22C6.47715 22 2 17.5228 2 12C2 6.47715 6.47715 2 12 2C17.5228 2 22 6.47715 22 12Z" fill="currentColor" fill-opacity="0.4"/>
<path fill-rule="evenodd" clip-rule="evenodd" d="M0 12C0 18.6274 5.37258 24 12 24C18.6274 24 24 18.6274 24 12C24 5.37258 18.6274 0 12 0C5.37258 0 0 5.37258 0 12ZM22 12C22 17.5228 17.5228 22 12 22C6.47715 22 2 17.5228 2 12C2 6.47715 6.47715 2 12 2C17.5228 2 22 6.47715 22 12Z" fill="currentColor" style="mix-blend-mode:color-burn"/>
</symbol>

<symbol id="circle" width="24" height="24" viewBox="0 0 24 24" fill="none">
<path fill-rule="evenodd" clip-rule="evenodd" d="M0 12C0 18.6274 5.37258 24 12 24C18.6274 24 24 18.6274 24 12C24 5.37258 18.6274 0 12 0C5.37258 0 0 5.37258 0 12ZM22 12C22 17.5228 17.5228 22 12 22C6.47715 22 2 17.5228 2 12C2 6.47715 6.47715 2 12 2C17.5228 2 22 6.47715 22 12Z" fill="currentColor"/>
</symbol>

<symbol id="close-invert" width="28" height="28" viewBox="0 0 28 28" fill="none">
<path fill-rule="evenodd" clip-rule="evenodd" d="M14 28C21.732 28 28 21.732 28 14C28 6.26801 21.732 0 14 0C6.26801 0 0 6.26801 0 14C0 21.732 6.26801 28 14 28Z" fill="black"/>
<path fill-rule="evenodd" clip-rule="evenodd" d="M8.85518 8.85518C8.38161 9.32874 8.38161 10.0965 8.85518 10.5701L12.2851 14L8.85518 17.4299C8.38161 17.9035 8.38161 18.6713 8.85518 19.1448C9.32874 19.6184 10.0965 19.6184 10.5701 19.1448L14 15.7149L17.4299 19.1448C17.9035 19.6184 18.6713 19.6184 19.1448 19.1448C19.6184 18.6713 19.6184 17.9035 19.1448 17.4299L15.7149 14L19.1448 10.5701C19.6184 10.0965 19.6184 9.32874 19.1448 8.85518C18.6713 8.38161 17.9035 8.38161 17.4299 8.85518L14 12.2851L10.5701 8.85518C10.0965 8.38161 9.32874 8.38161 8.85518 8.85518Z" fill="currentColor"/>
</symbol>

<symbol id="close" width="28" height="28" viewBox="0 0 28 28" fill="none">
<path fill-rule="evenodd" clip-rule="evenodd" d="M14 28C21.732 28 28 21.732 28 14C28 6.26801 21.732 0 14 0C6.26801 0 0 6.26801 0 14C0 21.732 6.26801 28 14 28Z" fill="currentColor"/>
<path fill-rule="evenodd" clip-rule="evenodd" d="M8.85518 8.85518C8.38161 9.32874 8.38161 10.0965 8.85518 10.5701L12.2851 14L8.85518 17.4299C8.38161 17.9035 8.38161 18.6713 8.85518 19.1448C9.32874 19.6184 10.0965 19.6184 10.5701 19.1448L14 15.7149L17.4299 19.1448C17.9035 19.6184 18.6713 19.6184 19.1448 19.1448C19.6184 18.6713 19.6184 17.9035 19.1448 17.4299L15.7149 14L19.1448 10.5701C19.6184 10.0965 19.6184 9.32874 19.1448 8.85518C18.6713 8.38161 17.9035 8.38161 17.4299 8.85518L14 12.2851L10.5701 8.85518C10.0965 8.38161 9.32874 8.38161 8.85518 8.85518Z" fill="black"/>
</symbol>

<symbol id="error" width="24" height="24" viewBox="0 0 24 24" fill="none">
<path d="M12 0C5.376 0 0 5.376 0 12C0 18.624 5.376 24 12 24C18.624 24 24 18.624 24 12C24 5.376 18.624 0 12 0ZM13.2 18H10.8V15.6H13.2V18ZM13.2 13.2H10.8V6H13.2V13.2Z" fill="currentColor"/>
</symbol>

<symbol id="notification" width="24" height="24" viewBox="0 0 24 24" fill="none">
<path d="M4.19593 15.9418L7.97494 19.7196C7.7284 19.9749 7.4335 20.1785 7.10743 20.3186C6.78137 20.4587 6.43067 20.5324 6.07581 20.5355C5.72095 20.5386 5.36903 20.471 5.04058 20.3366C4.71213 20.2022 4.41374 20.0037 4.1628 19.7528C3.91187 19.5018 3.71342 19.2034 3.57904 18.8749C3.44466 18.5465 3.37704 18.1945 3.38013 17.8397C3.38321 17.4848 3.45694 17.1341 3.597 16.808C3.73707 16.4819 3.94067 16.187 4.19593 15.9404V15.9418ZM16.0447 23.0565L15.1 24L0 8.89917L0.943416 7.95436L2.416 8.16417C3.42356 8.30849 4.67432 8.00113 5.19146 7.48263L10.3829 2.29222C11.8896 0.813826 13.9189 -0.0099289 16.0297 9.03377e-05C18.1404 0.0101096 20.1619 0.853093 21.6544 2.34572C23.147 3.83835 23.9899 5.85991 23.9999 7.97077C24.0099 10.0816 23.1862 12.1111 21.7079 13.6178L16.5165 18.8109C15.998 19.3294 15.6906 20.5789 15.8349 21.5865L16.0447 23.0565Z" fill="currentColor"/>
</symbol>

<symbol id="oval" width="22" height="22" viewBox="0 0 22 22" fill="none">
<path fill-rule="evenodd" clip-rule="evenodd" d="M0 11C0 17.0751 4.92487 22 11 22C17.0751 22 22 17.0751 22 11C22 4.92487 17.0751 0 11 0C4.92487 0 0 4.92487 0 11ZM21 11C21 16.5228 16.5228 21 11 21C5.47715 21 1 16.5228 1 11C1 5.47715 5.47715 1 11 1C16.5228 1 21 5.47715 21 11Z" fill="currentColor"/>
</symbol>

</svg>
