<svg width="24" height="24" viewBox="0 0 24 24" fill="none" xmlns="http://www.w3.org/2000/svg">
<path d="M4.19593 15.9418L7.97494 19.7196C7.7284 19.9749 7.4335 20.1785 7.10743 20.3186C6.78137 20.4587 6.43067 20.5324 6.07581 20.5355C5.72095 20.5386 5.36903 20.471 5.04058 20.3366C4.71213 20.2022 4.41374 20.0037 4.1628 19.7528C3.91187 19.5018 3.71342 19.2034 3.57904 18.8749C3.44466 18.5465 3.37704 18.1945 3.38013 17.8397C3.38321 17.4848 3.45694 17.1341 3.597 16.808C3.73707 16.4819 3.94067 16.187 4.19593 15.9404V15.9418ZM16.0447 23.0565L15.1 24L0 8.89917L0.943416 7.95436L2.416 8.16417C3.42356 8.30849 4.67432 8.00113 5.19146 7.48263L10.3829 2.29222C11.8896 0.813826 13.9189 -0.0099289 16.0297 9.03377e-05C18.1404 0.0101096 20.1619 0.853093 21.6544 2.34572C23.147 3.83835 23.9899 5.85991 23.9999 7.97077C24.0099 10.0816 23.1862 12.1111 21.7079 13.6178L16.5165 18.8109C15.998 19.3294 15.6906 20.5789 15.8349 21.5865L16.0447 23.0565Z" fill="currentColor"/>
</svg>
